<svg width="1200" height="900" viewBox="0 0 1200 900" fill="none" xmlns="http://www.w3.org/2000/svg" role="img" aria-labelledby="title desc">
  <title id="title">Codex milestone mission board</title>
  <desc id="desc">A colorful dashboard illustration showing shipped pages, skills, infrastructure, and knowledgebase milestones.</desc>
  <rect width="1200" height="900" rx="36" fill="#101820"/>
  <rect x="56" y="56" width="1088" height="788" rx="28" fill="#F5F7F8"/>
  <rect x="96" y="100" width="1008" height="104" rx="18" fill="#101820"/>
  <circle cx="144" cy="152" r="14" fill="#E05D3F"/>
  <circle cx="188" cy="152" r="14" fill="#E2A43A"/>
  <circle cx="232" cy="152" r="14" fill="#35A875"/>
  <text x="288" y="162" fill="#F5F7F8" font-family="Inter, Arial, sans-serif" font-size="34" font-weight="800">Gustavo + Codex Mission Board</text>
  <rect x="96" y="246" width="286" height="186" rx="18" fill="#1677B8"/>
  <text x="126" y="306" fill="white" font-family="Inter, Arial, sans-serif" font-size="58" font-weight="900">18</text>
  <text x="126" y="350" fill="white" font-family="Inter, Arial, sans-serif" font-size="25" font-weight="800">commits shipped</text>
  <text x="126" y="386" fill="#D8F4FF" font-family="Inter, Arial, sans-serif" font-size="19">from first commit to idea factory</text>
  <rect x="457" y="246" width="286" height="186" rx="18" fill="#C76543"/>
  <text x="487" y="306" fill="white" font-family="Inter, Arial, sans-serif" font-size="58" font-weight="900">3</text>
  <text x="487" y="350" fill="white" font-family="Inter, Arial, sans-serif" font-size="25" font-weight="800">live idea pages</text>
  <text x="487" y="386" fill="#FFE9DF" font-family="Inter, Arial, sans-serif" font-size="19">Leandro, Scacca, milestone reel</text>
  <rect x="818" y="246" width="286" height="186" rx="18" fill="#35A875"/>
  <text x="848" y="306" fill="white" font-family="Inter, Arial, sans-serif" font-size="58" font-weight="900">2</text>
  <text x="848" y="350" fill="white" font-family="Inter, Arial, sans-serif" font-size="25" font-weight="800">Idea Export skills</text>
  <text x="848" y="386" fill="#E0FFE9" font-family="Inter, Arial, sans-serif" font-size="19">V1 stable, V2 planning engine</text>
  <rect x="96" y="500" width="1008" height="84" rx="18" fill="#E7ECF0"/>
  <rect x="128" y="530" width="190" height="24" rx="12" fill="#1677B8"/>
  <rect x="342" y="530" width="270" height="24" rx="12" fill="#35A875"/>
  <rect x="636" y="530" width="210" height="24" rx="12" fill="#E2A43A"/>
  <rect x="870" y="530" width="166" height="24" rx="12" fill="#C76543"/>
  <text x="128" y="632" fill="#101820" font-family="Inter, Arial, sans-serif" font-size="26" font-weight="900">Knowledgebase</text>
  <text x="128" y="670" fill="#5D6875" font-family="Inter, Arial, sans-serif" font-size="21">35 Markdown notes</text>
  <text x="418" y="632" fill="#101820" font-family="Inter, Arial, sans-serif" font-size="26" font-weight="900">Automation</text>
  <text x="418" y="670" fill="#5D6875" font-family="Inter, Arial, sans-serif" font-size="21">5 scripts + .venv</text>
  <text x="688" y="632" fill="#101820" font-family="Inter, Arial, sans-serif" font-size="26" font-weight="900">Artifacts</text>
  <text x="688" y="670" fill="#5D6875" font-family="Inter, Arial, sans-serif" font-size="21">6,400+ text lines</text>
  <text x="916" y="632" fill="#101820" font-family="Inter, Arial, sans-serif" font-size="26" font-weight="900">Tokens-ish</text>
  <text x="916" y="670" fill="#5D6875" font-family="Inter, Arial, sans-serif" font-size="21">~47k artifact tokens</text>
  <path d="M152 750 C280 692 360 782 492 730 C622 679 707 777 834 724 C942 679 1010 706 1060 668" stroke="#101820" stroke-width="10" stroke-linecap="round"/>
  <circle cx="152" cy="750" r="20" fill="#1677B8"/>
  <circle cx="492" cy="730" r="20" fill="#35A875"/>
  <circle cx="834" cy="724" r="20" fill="#E2A43A"/>
  <circle cx="1060" cy="668" r="20" fill="#C76543"/>
</svg>
